<svg xmlns="http://www.w3.org/2000/svg" viewBox="0 0 56 139"><g id="Layer_2" data-name="Layer 2"><g id="Layer_1-2" data-name="Layer 1"><g id="Layer_2-2" data-name="Layer 2"><g id="Layer_1-2-2" data-name="Layer 1-2"><path d="M33.66,20c.4,1.32-3.53,2.94-8,2.94S16.92,21.21,17.62,20c.61-1,3.53-.3,8.07-.3S33.05,18.27,33.66,20Z" fill="#acceec"/><path d="M25.69,23c-3.83,0-7.56-1.32-8.17-2.44a.88.88,0,0,1,0-.71c.51-.81,1.82-.71,4.14-.5,1.11.1,2.52.2,4,.2a30.33,30.33,0,0,0,4.24-.3c2.11-.31,3.52-.51,3.93.7a.81.81,0,0,1-.2.82C32.85,21.92,29.62,23,25.69,23Zm-6.15-3.45c-.91,0-1.51.1-1.81.51a.28.28,0,0,0,0,.4c.6,1,4.23,2.33,8,2.33s7-1.11,7.76-2.23a.65.65,0,0,0,.11-.61c-.41-1-1.62-.81-3.63-.6a30.33,30.33,0,0,1-4.24.3c-1.51,0-2.82-.1-4-.2A16.53,16.53,0,0,1,19.54,19.59Z" fill="#95c5e9"/><path d="M28.62,16.45c0,3.24-1.11,5.67,4.83,8.51-3.52,5-7.05,6.69-7.05,6.69S18.94,28.31,16.31,26c1.31-1,2.73-1.73,3.94-2.64,2.42-1.72,1-5.58,1.51-7Z" fill="#f5a88d"/><path d="M29.72,5.3c-2.92-4.06-9.78-3-10.48,3.24s2.22,11.05,3.93,11.56,3.13.6,4.44-.31C31,17.46,32.35,9,29.72,5.3Z" fill="#f5a88d"/><path d="M21.25,1.14C16.62,4.79,18,7.22,19.24,13c-.51-3.14,3.12-8.11,2.52-6.79-1.92,4.05.91.2,4.94,1.93.3.1.5.1,1.61-.31S31,12.19,31,12.19a14,14,0,0,0,1.31-5.47C32-.18,23.57-1.29,23,1.24,22.67,1.14,21.76.74,21.25,1.14Z" fill="#7c3c24"/><path d="M23.07,1.34a.1.1,0,0,1,.1.1,3.67,3.67,0,0,0,1.11,2.64c.1.1.1.1,0,.2h0C23.78,4.79,22.36,1.24,23.07,1.34Z" fill="#692c1c"/><path d="M19.74,5.8c-.3-.1.3-2.53,2.22-3.75.1,0,.2,0,.2.1v.21A4.6,4.6,0,0,0,19.94,5.7a.35.35,0,0,1-.2.1Z" fill="#692c1c"/><path d="M22,5.6a1.28,1.28,0,0,0,.4-1.32c0-.1,0-.2.1-.2s.21,0,.21.1a1.44,1.44,0,0,1-.51,1.62H22A.14.14,0,0,1,22,5.6Z" fill="#692c1c"/><path d="M19.14,9c-.41-1.73-.51-1.83-.31-1.83s.31.31.61,1.72c0,.11,0,.21-.1.21S19.14,9.05,19.14,9Z" fill="#692c1c"/><path d="M27.51,1.75C26.7.94,25,.53,24.08,1.24h-.2c-.31-.4,2.32-1.11,3.83.41.1.1,0,.1,0,.2A.31.31,0,0,0,27.51,1.75Z" fill="#692c1c"/><path d="M28.11,4.18a2.31,2.31,0,0,0-3-.2h-.21c-.2-.31,2-1.42,3.43.1a.14.14,0,0,1,0,.2C28.21,4.18,28.21,4.18,28.11,4.18Z" fill="#692c1c"/><path d="M25,2c1.21-.3,1.1.51.8.31a.94.94,0,0,0-1.21.3C24.38,3,23.88,2.26,25,2Z" fill="#692c1c"/><path d="M26.8,7.63a1.46,1.46,0,0,0-.71-1.73c-.1,0-.1-.1,0-.2s.11-.1.21-.1a1.94,1.94,0,0,1,.8,2.13c0,.1-.1.1-.2.1S26.7,7.73,26.8,7.63Z" fill="#692c1c"/><path d="M22.67,7.32c0-1,1.51-2.23,1.71-1.72,0,.1,0,.2-.1.2A2.19,2.19,0,0,0,23,7.43c0,.1,0,.1-.1.2-.1-.1-.2-.2-.2-.31Z" fill="#692c1c"/><path d="M28.72,7.43a2.21,2.21,0,0,0,.4-2.34c0-.1,0-.2.1-.2s.1,0,.2.1A2.33,2.33,0,0,1,29,7.53c-.1.1-.1,0-.2,0A.1.1,0,0,1,28.72,7.43Z" fill="#692c1c"/><path d="M31,9.05c-.31-.1,0-.1.4-1.73,0-.1.1-.1.2-.1s.1.1.1.21S31.24,9.15,31,9.05Z" fill="#692c1c"/><path d="M31.44,5.4a3.78,3.78,0,0,0-1.72-2.54c-.1,0-.1-.1-.1-.2h0C30,1.85,32.24,5.4,31.54,5.5a.1.1,0,0,1-.1-.1Z" fill="#692c1c"/><path d="M18.53,11.28c1.21-.31,1.21,2.13,1.21,3.34C19.74,17.06,16.62,11.78,18.53,11.28Z" fill="#f5a88d"/><path d="M18.73,12.49s.1-.1.1,0l.11.11c-.21.7,0,1.11.3,1.21,0,0,.1.1,0,.1C19,14.22,18.43,13.41,18.73,12.49Z" fill="#ef7a5d"/><path d="M31.64,11.18c-1.21-.31-1.21,2.12-1.21,3.34C30.43,17.06,33.45,11.78,31.64,11.18Z" fill="#f5a88d"/><path d="M31.44,12.39s-.1-.1-.1,0l-.1.1c.2.71,0,1.12-.31,1.22,0,0-.1.1,0,.1C31,14.12,31.74,13.41,31.44,12.39Z" fill="#ef7a5d"/><path d="M22.36,12.29c-.4,0-.7-1.52.21-1.52C23.07,10.87,23,12.29,22.36,12.29Z" fill="#392924"/><path d="M28.11,12.39c.4,0,.71-1.52-.2-1.52C27.3,10.87,27.41,12.39,28.11,12.39Z" fill="#392924"/><path d="M21.86,19.08h.2c1,1.32,4.64,1.73,6.25-.1h.2v.1C25.89,21.92,21.15,19.59,21.86,19.08Z" fill="#ef7a5d"/><path d="M23.57,9.35c-1.31-.51-3.73.51-3,.81.2.1,1-.2,1.21-.2.5-.1,1.51.2,1.81-.1s.21-.31,0-.51Z" fill="#7c3c24"/><path d="M26.5,9.76c.3.3,1.31.1,1.81.2.31,0,1,.41,1.21.3.71-.2-1.71-1.42-3-.91-.1,0-.1.2,0,.41Z" fill="#7c3c24"/><path d="M24.58,14.72c0-.2.2-.2.41-.2.6-.1.7.2.4-2.53-.1-.51-.1-.81,0-.81s.1.2.2.81c.3,2.94.3,2.53-.91,2.84a.1.1,0,0,1-.1-.11Z" fill="#ef7a5d"/><path d="M23.47,17c-.2-.3.31-.2,3.43-.5C27.71,16.35,25,19.29,23.47,17Z" fill="#fff5ed"/><path d="M35.77,133.32a3.29,3.29,0,0,0,3.84.21L39.4,126l-4.84.11Z" fill="#f5a88d"/><path d="M40.21,138c-.5.4-.4.3-11.39.81-2.22.1-2.32-1-1.11-1.73,1.71-1.11,8-4.56,8.37-4.35a3.82,3.82,0,0,0,1.71.6,11.36,11.36,0,0,1,1.92,0C40.41,134.74,41.42,137.07,40.21,138Z" fill="#f2e8de"/><path d="M28.62,139c-.91,0-1.62-.3-1.72-.71a1.47,1.47,0,0,1,.71-1.32c.9-.5,8-4.66,8.47-4.36a3.74,3.74,0,0,0,1.61.61h1c.7,0,.91-.1,1,.1.7,1.42,1.81,3.86.5,4.87-.4.3-.4.3-5.65.51-1.51.1-3.32.1-5.74.3ZM36,132.92c-.61,0-6.15,3-8.17,4.36-.51.3-.71.71-.61.91.1.4.71.61,1.72.51q3.63-.16,5.74-.31c5.15-.2,5.15-.2,5.55-.51,1.11-.81.2-3.14-.5-4.46H38a3.63,3.63,0,0,1-2-.5Z" fill="#fffffc"/><path d="M40.71,136c.41,1.92-.7,2.23-1.31,2.33-.3,0-11.39.91-12,.3a.7.7,0,0,1-.31-.6Z" fill="#f2e8de"/><path d="M40.71,136a3.17,3.17,0,0,1,.11,1,1.34,1.34,0,0,1-.41,1,3.9,3.9,0,0,1-.91.5,3.75,3.75,0,0,1-1,.1l-3.94.31c-1.31.1-2.62.1-4,.1a13.74,13.74,0,0,1-2-.1,3.55,3.55,0,0,1-1-.2h-.1a.11.11,0,0,1-.11-.11l-.2-.2a.45.45,0,0,1-.1-.51h0c0,.21,0,.31.2.41l.21.2a.1.1,0,0,1,.1.1h.1a3.14,3.14,0,0,0,1,.11h2c1.31,0,2.62-.11,4-.21s2.63-.2,3.94-.2a3.5,3.5,0,0,0,1-.1,1.73,1.73,0,0,0,.9-.41,1.28,1.28,0,0,0,.41-.91c-.1-.2-.1-.61-.21-.91Z" fill="#fffffc"/><path d="M33.56,134.13a3.22,3.22,0,0,0,1.51,1.12Z" fill="#f2e8de"/><path d="M35,135.35a2.93,2.93,0,0,1-1.52-1.22l.21-.2a3.82,3.82,0,0,0,1.41,1.12Z" fill="#fffffc"/><path d="M32.45,134.74c0,.41.9,1,1.31,1.22Z" fill="#f2e8de"/><path d="M33.66,136.06s-1.42-.61-1.31-1.32h.3c0,.31.7.81,1.21,1Z" fill="#fffffc"/><path d="M31.34,135.45c.2.61.9.91,1.41,1.12Z" fill="#f2e8de"/><path d="M32.65,136.67a2.47,2.47,0,0,1-1.51-1.22l.3-.1a2.18,2.18,0,0,0,1.31,1v.11Z" fill="#fffffc"/><path d="M28.21,137.18c.2,1,1.62.81,2.62.81Z" fill="#f2e8de"/><path d="M30.13,138.09c-.91,0-1.82-.1-2-.91l.3-.11c.21.71,1.21.71,2.12.71h.4v.31h-.8Z" fill="#fffffc"/><path d="M17.93,136a3.47,3.47,0,0,1,.1,1,1.3,1.3,0,0,1-.41,1,4.05,4.05,0,0,1-.9.5,3.86,3.86,0,0,1-1,.1l-3.93.31c-1.31.1-2.62.1-4,.1a13.54,13.54,0,0,1-2-.1,3.55,3.55,0,0,1-1-.2h-.1a.1.1,0,0,1-.1-.11l-.2-.2a.44.44,0,0,1-.11-.51h0c0,.21,0,.31.21.41l.2.2a.1.1,0,0,1,.1.1h.1a3.17,3.17,0,0,0,1,.11h2c1.32,0,2.63-.11,3.94-.21l3.93-.3a3.5,3.5,0,0,0,1-.1,1.82,1.82,0,0,0,.9-.41,1.24,1.24,0,0,0,.41-.91c0-.2-.1-.51-.1-.81Z" fill="#fff"/><polygon points="12.89 133.22 16.72 133.53 17.42 126.43 12.79 126.53 12.89 133.22" fill="#f5a88d"/><path d="M17.42,138c-.5.4-.4.3-11.39.81-2.22.1-2.32-1-1.11-1.73,1.71-1.11,8-4.56,8.37-4.35,1.11.7,1.71.81,3.43.5C17,133.22,18.94,136.87,17.42,138Z" fill="#f2e8de"/><path d="M5.83,138.9c-.91,0-1.62-.31-1.72-.71a1.49,1.49,0,0,1,.71-1.32c.91-.51,8-4.66,8.47-4.36,1,.61,1.61.71,3.33.51.4-.1,1,1.42,1,1.52.31.81.91,2.74-.2,3.55-.4.3-.4.3-5.64.5L6,138.9Zm7.36-6.08c-.61,0-6.15,3-8.17,4.36-.5.3-.7.7-.6.91.1.4.7.61,1.71.5l5.75-.3c5.14-.2,5.14-.2,5.54-.51l.1.1-.1-.1c.41-.3.51-.71.51-1.42a7.11,7.11,0,0,0-1.11-3c-1.82.31-2.52.21-3.63-.5Z" fill="#fffffc"/><path d="M12.18,135.35h0a2.74,2.74,0,0,1-1.61-1.22v-.2h.2a3.9,3.9,0,0,0,1.41,1.12c.1,0,.1.1.1.2h0C12.28,135.35,12.28,135.35,12.18,135.35Z" fill="#fff"/><path d="M10.87,136.06h0c-.1,0-1.41-.61-1.41-1.32a.1.1,0,0,1,.1-.1h0c.1,0,.1.1.1.2h0c0,.31.71.81,1.21,1,.1,0,.1.1.1.2h0C11.07,136,11,136.06,10.87,136.06Z" fill="#fff"/><path d="M9.86,136.57a2.53,2.53,0,0,1-1.51-1.22c0-.1,0-.2.1-.2s.2,0,.2.1h0a2.21,2.21,0,0,0,1.31,1v.1Z" fill="#fff"/><path d="M7.24,138.09c-.91,0-1.82-.1-2-.91,0-.11,0-.21.1-.21h0c.1,0,.21,0,.21.1.2.71,1.21.71,2.11.71h.41a.1.1,0,0,1,.1.1l-.1.11H7.64Z" fill="#fff"/><path d="M39.5,55c0,1.31,1.92,76.83.91,76.93-.7.11-5.64.41-5.85-.3C28.72,104.74,26,78.48,26,78.48c-3.22,20.68.41,20.38-8,52.61-.2.61-6.05,1-6.05.1,0-6.08.3-79.57,0-74.4C15.81,56.59,39.5,55,39.5,55Z" fill="#231f20"/><path d="M37.19,132.21c-1.32,0-2.63-.1-2.73-.61-5.14-23.52-7.86-46.83-8.47-52a135.21,135.21,0,0,0-1.51,15.61c-.5,7.91-.91,15.31-6.25,36-.2.61-3.63.92-5.14.71-.81-.1-1.21-.3-1.21-.71,0-7.19.3-68.82.1-74.2h-.1v-.2c0-.3,0-.4.2-.4s.1,0,.2.2c4.34-.31,27.12-1.83,27.33-1.83h.1v.41c.1,5.07.5,23.11.9,40.24.61,36.39.21,36.49-.1,36.49A10.34,10.34,0,0,1,37.19,132.21ZM26,77.47l.1,1.12c0,.3,2.83,26.55,8.57,53.11.11.41,3.33.41,5.65.2.61-1.82-.1-42.16-.91-76.53v-.1c-2,.1-23,1.52-27.22,1.83V91.86c0,16.93-.1,34.57-.1,39.54q0,.15.6.3c1.62.41,5.05-.1,5.15-.4,5.34-20.68,5.74-28.08,6.25-36a155.28,155.28,0,0,1,1.71-16.72Z" fill="#3e4b61"/><path d="M26,75.85a.1.1,0,0,1-.1-.1,61.65,61.65,0,0,1-.3-11.36c.1-2.12.2-3.44-.4-4.56,0-.1,0-.2.1-.2h0c.1,0,.2,0,.2.1h0c.6,1.12.5,2.54.4,4.66a53.32,53.32,0,0,0,.31,11.36.39.39,0,0,1-.21.1Z" fill="#3e4b61"/><path d="M17,130.59h0c-.1,0-.2-.1-.1-.21h0c3.83-15,4.94-27.87,5.75-37.2.5-6.18.9-10.64,1.81-13.28,0-.1.1-.1.2-.1h0c.1,0,.1.1.1.2h0c-.9,2.64-1.31,7.1-1.81,13.18a221.26,221.26,0,0,1-5.75,37.31C17.12,130.59,17.12,130.59,17,130.59Z" fill="#3e4b61"/><path d="M12.58,74.53a.1.1,0,0,1-.1-.1v-.2h0c3.33-2.54,3.43-3.35,3.43-7.91V64.6a.1.1,0,0,1,.1-.1h0c.1,0,.1.1.1.2v1.72c0,4.56,0,5.47-3.53,8.11Z" fill="#3e4b61"/><path d="M39.5,74.43h-.6c-3.83-.1-3.83-.2-3.93-5.58V66.52c0-.1,0-.2.1-.2s.2,0,.2.1v2.43c0,2.64.1,4,.5,4.57s1.31.6,3.13.71h.6c.11,0,.11.1.11.2l-.11.1Z" fill="#3e4b61"/><path d="M26.09,78.08h0a.22.22,0,0,1-.2-.2,2,2,0,0,0-1.61-1.42c-.1,0-.1-.1-.1-.21a.1.1,0,0,1,.1-.1,2.18,2.18,0,0,1,1.81,1.42c.81-1.42,1.92-1.72,2.63-1.52.1,0,.1.1.1.2s-.1.11-.2.11c-.71-.21-1.72.1-2.42,1.52C26.3,78,26.2,78.08,26.09,78.08Z" fill="#3e4b61"/><path d="M16.92,30.94c.4,8.72-.71,35.38-9.48,38.22C-5.46,71.79,2.9,59.93,2.2,53.85,1.69,49,4.82,44.73,4.52,41.79c-.61-6.59,1.41-9.73,3.73-12.27,1.31-1.42,2.12-2.83,4.23-3C14.3,26.38,16.92,29.12,16.92,30.94Z" fill="#acceec"/><path d="M4.21,69.66A4.51,4.51,0,0,1,.89,68.55c-1.62-1.62-.71-4.87.2-8.21.6-2.23,1.21-4.66,1-6.39-.31-2.73.6-5.37,1.31-7.6a12.2,12.2,0,0,0,1-4.56C3.81,35,6,31.85,8.15,29.42c.2-.2.3-.4.5-.5,1-1.22,1.92-2.34,3.83-2.44A3.49,3.49,0,0,1,15.1,27.6a5.41,5.41,0,0,1,2,3.44,120.91,120.91,0,0,1-1.31,21.39c-1.11,6.9-3.53,15.51-8.37,17C6.43,69.56,5.32,69.66,4.21,69.66Zm8.47-43h-.2c-1.71.2-2.62,1.21-3.63,2.33-.2.2-.3.4-.5.6C6.23,32,4.11,35.1,4.72,41.79a12.87,12.87,0,0,1-1,4.66A16.59,16.59,0,0,0,2.4,54a19.53,19.53,0,0,1-1,6.49c-.81,3.14-1.71,6.49-.2,8,1,1.11,3.13,1.32,6.35.61,8.27-2.64,10-27.27,9.38-38.12A4.88,4.88,0,0,0,15,27.8,3.65,3.65,0,0,0,12.68,26.69Z" fill="#95c5e9"/><path d="M20.35,23.54c1.81,4.36,8.77,4.36,10.58,0,2,.1,6.66,1.42,7.87,2.33,2.82,2,5.34,41.06,1.31,44a137.55,137.55,0,0,1-28.13-1c-6.15-1.72-.51-41.86-.4-42.16A83.64,83.64,0,0,1,20.35,23.54Z" fill="#acceec"/><path d="M31.24,70.27A161.91,161.91,0,0,1,12,69c-6.35-1.73-.61-41.87-.51-42.27v-.11h.11a75.08,75.08,0,0,1,8.57-3.14h.2l.1.1v.1a5.35,5.35,0,0,0,5.14,3.15h0a5.21,5.21,0,0,0,5.14-3.25v-.1h.1c2,.1,6.66,1.42,7.87,2.33,1.81,1.32,3.43,16.53,3.53,28.39,0,5.27-.2,14.39-2.12,15.81h0C37,70.17,34.06,70.27,31.24,70.27ZM11.68,26.79C11.37,28.51,6.13,67,12,68.65c10,1.12,18.15,1.72,28,1,1.31-1,2.12-6.69,2-15.61C41.92,41.18,40.21,27,38.7,25.87A26.55,26.55,0,0,0,31,23.54a5.7,5.7,0,0,1-5.45,3.25,5.53,5.53,0,0,1-5.34-3.25C19.34,24,13.89,25.67,11.68,26.79Z" fill="#95c5e9"/><path d="M54.73,46.25a13.31,13.31,0,0,1,1.11,5.17c-.2.91-1.92,6.08-5.75,7.7s-5.24,6.79-8.57,4.26c-1.81-2.23-2.92-7.1-2.92-7.1-1.92-4.46,2.22-2.12,5.34-6.48.61-.81.51-1.22-.3-1.93-7.56-6.28-4.94-22-4.94-22,4.54-.5,10.08,8.82,11.19,13.18C50.6,42.19,53.52,43.51,54.73,46.25Z" fill="#acceec"/><path d="M43.34,64.29a2.88,2.88,0,0,1-1.82-.71h0c-1.81-2.23-2.82-6.89-2.92-7.09a3.37,3.37,0,0,1-.41-2.44,2.85,2.85,0,0,1,1.72-1.21,8.14,8.14,0,0,0,4-2.94c.51-.71.51-1-.3-1.72C36,41.79,38.5,26.08,38.5,26v-.11h.1c4.84-.5,10.28,9.13,11.29,13.28a9.08,9.08,0,0,0,2.62,4.06,9.58,9.58,0,0,1,2.32,3c.5,1,1.41,4,1.11,5.27,0,.1-1.61,6.08-5.75,7.81a13.07,13.07,0,0,0-3.63,2.83C45.45,63.28,44.45,64.29,43.34,64.29Zm-1.62-1c1.92,1.52,3,.3,4.64-1.32A12.48,12.48,0,0,1,50.09,59c4-1.72,5.65-7.6,5.65-7.7.3-1.12-.51-4-1-5.07a12.69,12.69,0,0,0-2.22-3,9.59,9.59,0,0,1-2.72-4.16c-1.21-4.56-6.66-13.38-11-13.07-.2,1.41-2.12,15.81,5,21.89.91.71,1,1.22.3,2.13a8.07,8.07,0,0,1-4.23,3c-.81.3-1.41.51-1.62,1s-.1,1.12.41,2.23c.1.11,1.31,4.87,3,7Z" fill="#95c5e9"/><path d="M16.31,25.37c-1.21-1.32-.6-3,2.22-2.44a.56.56,0,0,0,.41-.2h0c0-.61-2.12-2.43-1.11-2.63,2.42-.41,6.45,6.79,7.76,6.79,1.61,0,2.42-3.55,3.43-4.77.4-.4,3.33-3.95,4.43-2.43.61.81,0,1.52.31,2.43s1-.91,1.81-.2a2.93,2.93,0,0,1,0,3.85C32.65,29.32,19.64,28.92,16.31,25.37Z" fill="#acceec"/><path d="M26.8,28.41c-3.93,0-8.67-.91-10.59-2.94a1.86,1.86,0,0,1-.5-2c.4-.71,1.41-1,2.82-.71h.1l.1-.1a2.86,2.86,0,0,0-.6-1c-.4-.61-.81-1.12-.71-1.42a.53.53,0,0,1,.41-.21c1.51-.2,3.42,2.13,5.24,4.26,1,1.32,2.12,2.64,2.62,2.64,1,0,1.72-1.52,2.32-2.84a15.66,15.66,0,0,1,1-1.82s2.42-2.94,3.83-2.84a.69.69,0,0,1,.71.4,1.86,1.86,0,0,1,.2,1.42,4.2,4.2,0,0,0,0,1.12.35.35,0,0,0,.1.2c.1,0,.2-.1.3-.2a.94.94,0,0,1,1.31-.21,3.1,3.1,0,0,1,0,4.06c-1.21,1.52-4,2.43-7.86,2.53A.85.85,0,0,0,26.8,28.41Zm-9.28-5.48c-.8,0-1.31.21-1.51.61a1.74,1.74,0,0,0,.4,1.73c1.72,1.82,6.36,3,11.3,2.83,3.73-.1,6.55-1,7.66-2.43a2.78,2.78,0,0,0,0-3.65c-.3-.3-.6-.1-.91.21a.86.86,0,0,1-.6.3l-.3-.3A4.62,4.62,0,0,1,33.45,21a1.72,1.72,0,0,0-.2-1.22.55.55,0,0,0-.5-.3h0c-1.11,0-3,2-3.63,2.74A5.57,5.57,0,0,0,28.21,24c-.7,1.42-1.41,3-2.62,3-.6,0-1.41-1-2.82-2.74-1.62-1.92-3.63-4.36-4.94-4.15-.1,0-.1,0-.1.1s.4.81.7,1.21a2.7,2.7,0,0,1,.71,1.22c0,.1-.1.3-.2.3s-.21.11-.41.11a2.85,2.85,0,0,0-1-.11Z" fill="#95c5e9"/><path d="M2.5,70c1.41.1,3.23,0,3.93-.51-.1,5.17-.2,2.43.31,4.26.3,1,1.91,4.76,1.21,5.47-.51.61-1.11-1.11-1.62-2-.7-1.42-2.52,1.31-.3,4.35.2.31,1.41,1.73.5,2.54a9.57,9.57,0,0,1-2.42-3.14c.61,2,.41,3.44-.1,3.34-.8-.2-1.91-7.4-.7-10.84C3.41,72.91,3.31,72.91,2.5,70Z" fill="#f5a789"/><polygon points="39.6 61.15 36.18 62.47 34.56 58.72 38.19 57.09 39.6 61.15" fill="#f5a789"/><path d="M2,69.16a8.75,8.75,0,0,0,5.34,0c.2,1.32.1,2-.81,2.84C6.23,72.4,1.29,73.72,2,69.16Z" fill="#95c5e9"/><path d="M37.19,62.27c.3.3,1.91.2,3.42-.41a27,27,0,0,1-2-6,29.66,29.66,0,0,0-2.73,2C35.57,58.21,36.28,61.35,37.19,62.27Z" fill="#95c5e9"/><path d="M32.85,69a15.83,15.83,0,0,1-4.34-.71c-.6-.11-1.21-.31-2-.41a45.85,45.85,0,0,0-12.71-.41c-.6.11-.9-.3-1.31-1.11-.2-.3-.4-.71-.7-1.22a1.06,1.06,0,0,1,.1-1.31c2.42-2.44,3.83-7.71,4.13-9.23a.8.8,0,0,1,.91-.61c5.75.81,10.89,1.32,15.93.21.2,0,.5,0,.6.1s.31.3.41.61a23.26,23.26,0,0,0,4,10.13c.4.61.1,1.22-.3,2-.2.3-.3.61-.51,1a.87.87,0,0,1-.8.61A19,19,0,0,1,32.85,69ZM19.34,66.83a33.45,33.45,0,0,1,7.16.71c.7.2,1.41.3,2,.5a15.78,15.78,0,0,0,7.77.31.68.68,0,0,0,.6-.41,4.79,4.79,0,0,1,.51-1c.4-.71.7-1.32.3-1.73A25.08,25.08,0,0,1,33.56,55a.81.81,0,0,0-.21-.41.6.6,0,0,0-.4-.1c-5,1.11-10.28.61-16-.2a.56.56,0,0,0-.61.4c-.5,2-1.81,6.9-4.23,9.33a.78.78,0,0,0-.1.91c.3.51.6.91.81,1.22.5.81.6,1,1,.91,1.62,0,3.53-.2,5.55-.2Z" fill="#95c5e9"/><path d="M26,27.5c-2.21,0-3.83-1.52-5.24-2.94a10.36,10.36,0,0,0-1.61-1.42c-.1,0-.1-.1,0-.21s.1-.1.2,0h0A11.52,11.52,0,0,1,21,24.35c1.31,1.32,2.83,2.84,5,2.84h.1c2.12-.1,4.54-1.62,7.36-4.76.11-.1.11-.1.21,0h0c.1.1.1.1,0,.2q-4.24,4.86-7.57,4.87Z" fill="#95c5e9"/><path d="M47.77,50.41a.1.1,0,0,1-.1-.11c-1-1.42-1.81-1.92-2.72-1.52-.1.1-.2,0-.3-.1-.2-.4.9-2.33,1.91-3.34.1-.1.1-.1.2,0h0c.11.1.11.1,0,.2h0A8.33,8.33,0,0,0,45,48.38c1.31-.51,2.32.71,2.92,1.72,0,.2,0,.31-.1.31Z" fill="#95c5e9"/><path d="M36.18,41.69C31,57.1,15.41,46.05,14.3,41.69c-.71-3.14,2.92-5.88,8.87-5.88S37.19,38.65,36.18,41.69Z" fill="#95c5e9"/><path d="M27.1,49.7h-.5c-5.65-.21-11.7-5.17-12.4-8a3.54,3.54,0,0,1,.7-3.14c1.41-1.83,4.54-2.94,8.37-2.94,5.14,0,11.09,1.92,12.71,4.25a2,2,0,0,1,.4,1.83C34.16,48.28,30.13,49.7,27.1,49.7ZM23.27,35.91c-3.73,0-6.75,1-8.07,2.84a3,3,0,0,0-.7,2.84c.6,2.43,6.45,7.5,12.1,7.8,3.12.1,7.26-1.11,9.48-7.8A1.92,1.92,0,0,0,35.77,40C34.16,37.84,28.21,35.91,23.27,35.91Z" fill="#95c5e9"/><path d="M24.28,28.21c-1.21,0-.71-1.52-.1-1.52A.76.76,0,0,1,24.28,28.21Z" fill="#f0bfaa"/><path d="M24.28,28.31a1.8,1.8,0,0,1-.71-.21.76.76,0,0,1-.2-.5c0-.51.3-1,.71-1a.92.92,0,0,1,.7.31,1.44,1.44,0,0,1,.21.61A.71.71,0,0,1,24.28,28.31Zm-.1-1.52c-.2,0-.51.4-.51.71a.56.56,0,0,0,.11.4.76.76,0,0,0,.5.2c.3,0,.5-.3.5-.71,0-.2,0-.3-.1-.4A.76.76,0,0,0,24.18,26.79Z" fill="#f0bfaa"/><path d="M27.81,28c1.21,0,.7-1.52.1-1.52C26.8,26.38,27,28,27.81,28Z" fill="#f0bfaa"/><path d="M27.81,28.1a.88.88,0,0,1-.81-.91,1.51,1.51,0,0,1,.2-.61.94.94,0,0,1,.71-.3c.4,0,.71.51.71,1a.77.77,0,0,1-.21.51A.6.6,0,0,1,27.81,28.1Zm.2-1.52a.77.77,0,0,0-.5.21.78.78,0,0,0-.21.4c0,.31.21.71.51.71a.9.9,0,0,0,.5-.1c.1-.1.1-.2.1-.41C28.41,27,28.21,26.58,28,26.58Z" fill="#f0bfaa"/><path d="M24.48,29.12c-.81,1.72-.6,12-1.21,6.59a14.32,14.32,0,0,1-.1-4.26c.91-4.66.1-5,1.51-4.36C25,27.39,25,28.21,24.48,29.12Z" fill="#fffffc"/><path d="M27.71,28.92c.8,1.72.6,12,1.21,6.58.3-3,.2-3.75.1-4.25-.91-4.67-.1-5-1.51-4.36C27.1,27.19,27.2,28,27.71,28.92Z" fill="#fffffc"/></g></g></g></g></svg>